<svg xmlns="http://www.w3.org/2000/svg" width="1600" height="900" viewBox="0 0 1600 900" fill="none">
  <rect width="1600" height="900" fill="#07111A"/>
  <rect x="52" y="52" width="1496" height="796" rx="34" fill="#0C1624" stroke="#1E3147"/>
  <rect x="92" y="96" width="720" height="320" rx="28" fill="url(#hero)"/>
  <rect x="836" y="96" width="672" height="320" rx="28" fill="#0F1B2B" stroke="#23364A"/>
  <text x="132" y="148" fill="#8FB7FF" font-family="Segoe UI, Arial" font-size="22" letter-spacing="4">VENDOR RISK OPERATIONS CENTER</text>
  <text x="132" y="228" fill="#F5F7FB" font-family="Georgia, serif" font-size="58">Run renewals, exceptions,</text>
  <text x="132" y="290" fill="#F5F7FB" font-family="Georgia, serif" font-size="58">and remediation with one</text>
  <text x="132" y="352" fill="#F5F7FB" font-family="Georgia, serif" font-size="58">executive-grade surface.</text>
  <text x="874" y="145" fill="#95A7C4" font-family="Segoe UI, Arial" font-size="20">EXECUTIVE SNAPSHOT</text>
  <rect x="874" y="176" width="278" height="98" rx="22" fill="#111E2F"/>
  <rect x="1170" y="176" width="278" height="98" rx="22" fill="#111E2F"/>
  <rect x="874" y="292" width="278" height="98" rx="22" fill="#111E2F"/>
  <rect x="1170" y="292" width="278" height="98" rx="22" fill="#111E2F"/>
  <text x="902" y="216" fill="#92A7C8" font-family="Segoe UI, Arial" font-size="18">Active vendors</text>
  <text x="902" y="256" fill="#FFFFFF" font-family="Segoe UI, Arial" font-size="44" font-weight="700">128</text>
  <text x="1198" y="216" fill="#92A7C8" font-family="Segoe UI, Arial" font-size="18">Critical reviews</text>
  <text x="1198" y="256" fill="#FFFFFF" font-family="Segoe UI, Arial" font-size="44" font-weight="700">19</text>
  <text x="902" y="332" fill="#92A7C8" font-family="Segoe UI, Arial" font-size="18">Policy exceptions</text>
  <text x="902" y="372" fill="#FFFFFF" font-family="Segoe UI, Arial" font-size="44" font-weight="700">11</text>
  <text x="1198" y="332" fill="#92A7C8" font-family="Segoe UI, Arial" font-size="18">Burn-down</text>
  <text x="1198" y="372" fill="#FFFFFF" font-family="Segoe UI, Arial" font-size="44" font-weight="700">74%</text>
  <rect x="92" y="450" width="1040" height="330" rx="28" fill="#0F1B2B" stroke="#23364A"/>
  <rect x="1162" y="450" width="346" height="330" rx="28" fill="#0F1B2B" stroke="#23364A"/>
  <text x="124" y="496" fill="#8FB7FF" font-family="Segoe UI, Arial" font-size="19">PORTFOLIO POSTURE</text>
  <text x="124" y="538" fill="#F5F7FB" font-family="Georgia, serif" font-size="38">Critical vendor exposure is improving,</text>
  <text x="124" y="580" fill="#F5F7FB" font-family="Georgia, serif" font-size="38">but renewal pressure is compressing decision time.</text>
  <polyline points="140,700 280,680 420,620 560,650 700,590 840,540" stroke="#57D0FF" stroke-width="6" fill="none" stroke-linecap="round"/>
  <circle cx="140" cy="700" r="8" fill="#FFB65C"/>
  <circle cx="280" cy="680" r="8" fill="#FFB65C"/>
  <circle cx="420" cy="620" r="8" fill="#FFB65C"/>
  <circle cx="560" cy="650" r="8" fill="#FFB65C"/>
  <circle cx="700" cy="590" r="8" fill="#FFB65C"/>
  <circle cx="840" cy="540" r="8" fill="#FFB65C"/>
  <text x="1190" y="498" fill="#8FB7FF" font-family="Segoe UI, Arial" font-size="19">TIER MIX</text>
  <rect x="1192" y="544" width="238" height="14" rx="7" fill="#223346"/>
  <rect x="1192" y="544" width="164" height="14" rx="7" fill="#FF9F5A"/>
  <rect x="1192" y="614" width="238" height="14" rx="7" fill="#223346"/>
  <rect x="1192" y="614" width="212" height="14" rx="7" fill="#57D0FF"/>
  <rect x="1192" y="684" width="238" height="14" rx="7" fill="#223346"/>
  <rect x="1192" y="684" width="230" height="14" rx="7" fill="#8F9BB4"/>
  <text x="1192" y="530" fill="#F5F7FB" font-family="Segoe UI, Arial" font-size="22">Critical vendors · 32</text>
  <text x="1192" y="600" fill="#F5F7FB" font-family="Segoe UI, Arial" font-size="22">Elevated vendors · 46</text>
  <text x="1192" y="670" fill="#F5F7FB" font-family="Segoe UI, Arial" font-size="22">Standard vendors · 50</text>
  <defs>
    <linearGradient id="hero" x1="92" y1="96" x2="812" y2="416" gradientUnits="userSpaceOnUse">
      <stop stop-color="#15263A"/>
      <stop offset="1" stop-color="#0B1420"/>
    </linearGradient>
  </defs>
</svg>
