<svg xmlns="http://www.w3.org/2000/svg" width="1600" height="900" viewBox="0 0 1600 900" fill="none">
  <rect width="1600" height="900" fill="#08131D"/>
  <rect x="60" y="60" width="1480" height="780" rx="32" fill="#0F1B2B" stroke="#21364B"/>
  <text x="100" y="124" fill="#8FB7FF" font-family="Segoe UI, Arial" font-size="20">PORTFOLIO POSTURE</text>
  <text x="100" y="174" fill="#FFFFFF" font-family="Georgia, serif" font-size="46">Quarterly trend and workflow pressure</text>
  <polyline points="120,660 300,620 500,480 700,550 900,430 1100,320 1320,250" stroke="#57D0FF" stroke-width="8" fill="none" stroke-linecap="round"/>
  <line x1="120" y1="700" x2="1380" y2="700" stroke="#2A3B50" stroke-width="2"/>
  <line x1="120" y1="620" x2="1380" y2="620" stroke="#1E2D41" stroke-width="2" stroke-dasharray="6 8"/>
  <line x1="120" y1="520" x2="1380" y2="520" stroke="#1E2D41" stroke-width="2" stroke-dasharray="6 8"/>
  <line x1="120" y1="420" x2="1380" y2="420" stroke="#1E2D41" stroke-width="2" stroke-dasharray="6 8"/>
  <rect x="1010" y="120" width="470" height="200" rx="28" fill="#111E2F"/>
  <text x="1044" y="170" fill="#95A7C4" font-family="Segoe UI, Arial" font-size="18">EXECUTIVE NOTE</text>
  <text x="1044" y="224" fill="#F5F7FB" font-family="Segoe UI, Arial" font-size="34" font-weight="700">Renewal pressure is outpacing</text>
  <text x="1044" y="264" fill="#F5F7FB" font-family="Segoe UI, Arial" font-size="34" font-weight="700">control remediation in critical tiers.</text>
  <rect x="108" y="764" width="250" height="38" rx="19" fill="#142536"/>
  <rect x="392" y="764" width="250" height="38" rx="19" fill="#142536"/>
  <rect x="676" y="764" width="250" height="38" rx="19" fill="#142536"/>
  <text x="140" y="789" fill="#F5F7FB" font-family="Segoe UI, Arial" font-size="20">Assessment bottleneck</text>
  <text x="424" y="789" fill="#F5F7FB" font-family="Segoe UI, Arial" font-size="20">Exception pressure</text>
  <text x="708" y="789" fill="#F5F7FB" font-family="Segoe UI, Arial" font-size="20">Renewal gate risk</text>
</svg>
