<svg xmlns="http://www.w3.org/2000/svg" width="1600" height="900" viewBox="0 0 1600 900" fill="none">
  <rect width="1600" height="900" fill="#06101A"/>
  <rect x="68" y="68" width="1464" height="764" rx="32" fill="#0F1B2B" stroke="#23364A"/>
  <text x="106" y="130" fill="#8FB7FF" font-family="Segoe UI, Arial" font-size="20">REMEDIATION QUEUE</text>
  <text x="106" y="180" fill="#FFFFFF" font-family="Georgia, serif" font-size="46">Operator actions this sprint</text>
  <rect x="104" y="236" width="1392" height="122" rx="26" fill="#111E2F"/>
  <rect x="104" y="382" width="1392" height="122" rx="26" fill="#111E2F"/>
  <rect x="104" y="528" width="1392" height="122" rx="26" fill="#111E2F"/>
  <rect x="104" y="674" width="1392" height="122" rx="26" fill="#111E2F"/>
  <rect x="132" y="266" width="72" height="32" rx="16" fill="#3A201B"/>
  <rect x="132" y="412" width="72" height="32" rx="16" fill="#3A201B"/>
  <rect x="132" y="558" width="72" height="32" rx="16" fill="#2F273C"/>
  <rect x="132" y="704" width="72" height="32" rx="16" fill="#2F273C"/>
  <text x="154" y="288" fill="#FFB58B" font-family="Segoe UI, Arial" font-size="16" font-weight="700">P1</text>
  <text x="154" y="434" fill="#FFB58B" font-family="Segoe UI, Arial" font-size="16" font-weight="700">P1</text>
  <text x="154" y="580" fill="#D4B4FF" font-family="Segoe UI, Arial" font-size="16" font-weight="700">P2</text>
  <text x="154" y="726" fill="#D4B4FF" font-family="Segoe UI, Arial" font-size="16" font-weight="700">P3</text>
  <text x="230" y="290" fill="#FFFFFF" font-family="Segoe UI, Arial" font-size="28" font-weight="700">Close critical vendor findings before renewal window</text>
  <text x="230" y="436" fill="#FFFFFF" font-family="Segoe UI, Arial" font-size="28" font-weight="700">Re-score AI processing vendors against policy baseline</text>
  <text x="230" y="582" fill="#FFFFFF" font-family="Segoe UI, Arial" font-size="28" font-weight="700">Resolve DPA signature lag across EMEA vendors</text>
  <text x="230" y="728" fill="#FFFFFF" font-family="Segoe UI, Arial" font-size="28" font-weight="700">Consolidate stale questionnaires into one evidence bundle</text>
  <text x="1250" y="290" fill="#FFB65C" font-family="Segoe UI, Arial" font-size="32" font-weight="700">6 open tasks</text>
  <text x="1250" y="436" fill="#FFB65C" font-family="Segoe UI, Arial" font-size="32" font-weight="700">4 open tasks</text>
  <text x="1250" y="582" fill="#FFB65C" font-family="Segoe UI, Arial" font-size="32" font-weight="700">5 open tasks</text>
  <text x="1250" y="728" fill="#FFB65C" font-family="Segoe UI, Arial" font-size="32" font-weight="700">8 open tasks</text>
</svg>
